<?xml version="1.0" encoding="UTF-8" standalone="no"?>
<!DOCTYPE svg PUBLIC "-//W3C//DTD SVG 1.1//EN"
 "http://www.w3.org/Graphics/SVG/1.1/DTD/svg11.dtd">
<!-- Generated by graphviz version 2.40.1 (20161225.0304)
 -->
<!-- Title: dependencies Pages: 1 -->
<svg width="787pt" height="284pt"
 viewBox="0.00 0.00 787.00 284.00" xmlns="http://www.w3.org/2000/svg" xmlns:xlink="http://www.w3.org/1999/xlink">
<g id="graph0" class="graph" transform="scale(1 1) rotate(0) translate(4 280)">
<title>dependencies</title>
<polygon fill="#ffffff" stroke="transparent" points="-4,4 -4,-280 783,-280 783,4 -4,4"/>
<text text-anchor="start" x="368.5091" y="-42.4" font-family="sans-serif" font-weight="bold" font-size="14.00" fill="#000000">Legend</text>
<polygon fill="#ffffb3" stroke="transparent" points="155.5,-10 155.5,-30 175.5,-30 175.5,-10 155.5,-10"/>
<text text-anchor="start" x="179.129" y="-15.4" font-family="sans-serif" font-size="14.00" fill="#000000"> &#160;Declarations</text>
<polygon fill="#8dd3c7" stroke="transparent" points="268.5,-10 268.5,-30 288.5,-30 288.5,-10 268.5,-10"/>
<text text-anchor="start" x="292.2251" y="-15.4" font-family="sans-serif" font-size="14.00" fill="#000000"> &#160;Module</text>
<polygon fill="#80b1d3" stroke="transparent" points="354.5,-10 354.5,-30 374.5,-30 374.5,-10 354.5,-10"/>
<text text-anchor="start" x="378.2812" y="-15.4" font-family="sans-serif" font-size="14.00" fill="#000000"> &#160;Bootstrap</text>
<polygon fill="#fdb462" stroke="transparent" points="451.5,-10 451.5,-30 471.5,-30 471.5,-10 451.5,-10"/>
<text text-anchor="start" x="475.1732" y="-15.4" font-family="sans-serif" font-size="14.00" fill="#000000"> &#160;Providers</text>
<polygon fill="#fb8072" stroke="transparent" points="547.5,-10 547.5,-30 567.5,-30 567.5,-10 547.5,-10"/>
<text text-anchor="start" x="571.2258" y="-15.4" font-family="sans-serif" font-size="14.00" fill="#000000"> &#160;Exports</text>
<g id="clust1" class="cluster">
<title>cluster_AppModule</title>
<polygon fill="none" stroke="#000000" stroke-dasharray="1,5" points="8,-70 8,-268 771,-268 771,-70 8,-70"/>
</g>
<g id="clust2" class="cluster">
<title>cluster_AppModule_declarations</title>
<polygon fill="none" stroke="#000000" points="320,-78 320,-130 763,-130 763,-78 320,-78"/>
</g>
<g id="clust8" class="cluster">
<title>cluster_AppModule_bootstrap</title>
<polygon fill="none" stroke="#000000" points="353,-208 353,-260 477,-260 477,-208 353,-208"/>
</g>
<g id="clust9" class="cluster">
<title>cluster_AppModule_providers</title>
<polygon fill="none" stroke="#000000" points="16,-78 16,-130 312,-130 312,-78 16,-78"/>
</g>
<!-- AppComponent -->
<g id="node1" class="node">
<title>AppComponent</title>
<polygon fill="#ffffb3" stroke="#000000" points="754.9399,-122 649.0601,-122 649.0601,-86 754.9399,-86 754.9399,-122"/>
<text text-anchor="middle" x="702" y="-99.8" font-family="Times,serif" font-size="14.00" fill="#000000">AppComponent</text>
</g>
<!-- AppModule -->
<g id="node4" class="node">
<title>AppModule</title>
<polygon fill="#8dd3c7" stroke="#000000" points="456.6571,-187 453.6571,-191 432.6571,-191 429.6571,-187 373.3429,-187 373.3429,-151 456.6571,-151 456.6571,-187"/>
<text text-anchor="middle" x="415" y="-164.8" font-family="Times,serif" font-size="14.00" fill="#000000">AppModule</text>
</g>
<!-- AppComponent&#45;&gt;AppModule -->
<g id="edge1" class="edge">
<title>AppComponent&#45;&gt;AppModule</title>
<path fill="none" stroke="#000000" d="M702,-122.2843C702,-143.3211 702,-175 702,-175 702,-175 466.7323,-175 466.7323,-175"/>
<polygon fill="#000000" stroke="#000000" points="466.7323,-171.5001 456.7323,-175 466.7322,-178.5001 466.7323,-171.5001"/>
</g>
<!-- ErrorComponent -->
<g id="node2" class="node">
<title>ErrorComponent</title>
<polygon fill="#ffffb3" stroke="#000000" points="631.3669,-122 520.6331,-122 520.6331,-86 631.3669,-86 631.3669,-122"/>
<text text-anchor="middle" x="576" y="-99.8" font-family="Times,serif" font-size="14.00" fill="#000000">ErrorComponent</text>
</g>
<!-- ErrorComponent&#45;&gt;AppModule -->
<g id="edge2" class="edge">
<title>ErrorComponent&#45;&gt;AppModule</title>
<path fill="none" stroke="#000000" d="M576,-122.0225C576,-139.3734 576,-163 576,-163 576,-163 466.8806,-163 466.8806,-163"/>
<polygon fill="#000000" stroke="#000000" points="466.8806,-159.5001 456.8806,-163 466.8805,-166.5001 466.8806,-159.5001"/>
</g>
<!-- LoadingDimmerComponent -->
<g id="node3" class="node">
<title>LoadingDimmerComponent</title>
<polygon fill="#ffffb3" stroke="#000000" points="502.1442,-122 327.8558,-122 327.8558,-86 502.1442,-86 502.1442,-122"/>
<text text-anchor="middle" x="415" y="-99.8" font-family="Times,serif" font-size="14.00" fill="#000000">LoadingDimmerComponent</text>
</g>
<!-- LoadingDimmerComponent&#45;&gt;AppModule -->
<g id="edge3" class="edge">
<title>LoadingDimmerComponent&#45;&gt;AppModule</title>
<path fill="none" stroke="#000000" d="M415,-122.1061C415,-122.1061 415,-140.991 415,-140.991"/>
<polygon fill="#000000" stroke="#000000" points="411.5001,-140.9909 415,-150.991 418.5001,-140.991 411.5001,-140.9909"/>
</g>
<!-- AppComponent  -->
<g id="node5" class="node">
<title>AppComponent </title>
<polygon fill="#80b1d3" stroke="#000000" points="469.439,-252 360.561,-252 360.561,-216 469.439,-216 469.439,-252"/>
<text text-anchor="middle" x="415" y="-229.8" font-family="Times,serif" font-size="14.00" fill="#000000">AppComponent </text>
</g>
<!-- AppModule&#45;&gt;AppComponent  -->
<g id="edge4" class="edge">
<title>AppModule&#45;&gt;AppComponent </title>
<path fill="none" stroke="#000000" stroke-dasharray="1,5" d="M415,-187.1061C415,-187.1061 415,-205.991 415,-205.991"/>
<polygon fill="#000000" stroke="#000000" points="411.5001,-205.9909 415,-215.991 418.5001,-205.991 411.5001,-205.9909"/>
</g>
<!-- FilterService -->
<g id="node6" class="node">
<title>FilterService</title>
<ellipse fill="#fdb462" stroke="#000000" cx="243" cy="-104" rx="60.8255" ry="18"/>
<text text-anchor="middle" x="243" y="-99.8" font-family="Times,serif" font-size="14.00" fill="#000000">FilterService</text>
</g>
<!-- FilterService&#45;&gt;AppModule -->
<g id="edge5" class="edge">
<title>FilterService&#45;&gt;AppModule</title>
<path fill="none" stroke="#000000" d="M243,-122.0225C243,-139.3734 243,-163 243,-163 243,-163 362.9241,-163 362.9241,-163"/>
<polygon fill="#000000" stroke="#000000" points="362.9241,-166.5001 372.9241,-163 362.924,-159.5001 362.9241,-166.5001"/>
</g>
<!-- VehicleService -->
<g id="node7" class="node">
<title>VehicleService</title>
<ellipse fill="#fdb462" stroke="#000000" cx="94" cy="-104" rx="70.0384" ry="18"/>
<text text-anchor="middle" x="94" y="-99.8" font-family="Times,serif" font-size="14.00" fill="#000000">VehicleService</text>
</g>
<!-- VehicleService&#45;&gt;AppModule -->
<g id="edge6" class="edge">
<title>VehicleService&#45;&gt;AppModule</title>
<path fill="none" stroke="#000000" d="M94,-122.2843C94,-143.3211 94,-175 94,-175 94,-175 363.0349,-175 363.0349,-175"/>
<polygon fill="#000000" stroke="#000000" points="363.0349,-178.5001 373.0349,-175 363.0348,-171.5001 363.0349,-178.5001"/>
</g>
</g>
</svg>
